PathFileType	4	(X/Y/Z)	output.trc
DataRate	CameraRate	NumFrames	NumMarkers	Units	OrigDataRate	OrigDataStartFrame	OrigNumFrames
100	100	16	23	m	100	2516	5030
Frame#	Time	C7			T8			EL			EM			US			RS			AA			Fore_Clus_1			Fore_Clus_2			Fore_Clus_3			Fore_Clus_4			Hum_Clus_1			Hum_Clus_2			Hum_Clus_3			Hum_Clus_4			Thor_Clus_1			Thor_Clus_2			Thor_Clus_3			Thor_Clus_4			IJ			PX			GH			Thor_Clus_5		
		X1	Y1	Z1	X2	Y2	Z2	X3	Y3	Z3	X4	Y4	Z4	X5	Y5	Z5	X6	Y6	Z6	X7	Y7	Z7	X8	Y8	Z8	X9	Y9	Z9	X10	Y10	Z10	X11	Y11	Z11	X12	Y12	Z12	X13	Y13	Z13	X14	Y14	Z14	X15	Y15	Z15	X16	Y16	Z16	X17	Y17	Z17	X18	Y18	Z18	X19	Y19	Z19	X20	Y20	Z20	X21	Y21	Z21	X22	Y22	Z22	X23	Y23	Z23
2515	25.150000	-0.015049	1.344385	-0.135230	-0.013092	1.141295	-0.149423	-0.174216	1.014308	0.056467	-0.130540	0.992871	0.028108	-0.070559	1.040094	0.254000	-0.073069	1.087438	0.243027	-0.153353	1.258994	-0.035598	-0.125233	1.030560	0.230315	-0.100913	1.046237	0.276645	-0.102475	1.072954	0.268210	-0.127876	1.073153	0.216372	-0.192249	1.102293	0.059363	-0.211036	1.091793	0.003244	-0.218055	1.151645	-0.017176	-0.192697	1.171396	0.032160	0.090203	1.266736	-0.002900	0.046891	1.219068	0.051524	0.049584	1.263710	0.015027	0.105667	1.222903	0.024982	0.030852	1.283824	-0.049337	0.067288	1.097717	0.026116	-0.131338	1.242574	-0.061077	0.039991	1.238200	0.038954
2516	25.160000	-0.015010	1.344393	-0.135170	-0.013067	1.141304	-0.149377	-0.174243	1.014215	0.056326	-0.130591	0.992792	0.027918	-0.070254	1.039291	0.253811	-0.072454	1.086662	0.242888	-0.153289	1.259002	-0.035503	-0.124915	1.029896	0.230158	-0.100468	1.045408	0.276458	-0.102002	1.072090	0.268140	-0.127490	1.072553	0.216364	-0.192219	1.102181	0.059382	-0.211012	1.091794	0.003227	-0.218022	1.151680	-0.017104	-0.192627	1.171335	0.032276	0.090276	1.266714	-0.002875	0.046983	1.219058	0.051567	0.049641	1.263714	0.015068	0.105761	1.222905	0.024993	0.030913	1.283824	-0.049295	0.067362	1.097711	0.026136	-0.131277	1.242625	-0.060905	0.040077	1.238194	0.038994
2517	25.170000	-0.014965	1.344412	-0.135095	-0.013039	1.141326	-0.149331	-0.174268	1.014120	0.056175	-0.130639	0.992715	0.027720	-0.069949	1.038461	0.253621	-0.071862	1.085859	0.242761	-0.153219	1.259016	-0.035398	-0.124638	1.029219	0.229962	-0.100028	1.044621	0.276274	-0.101540	1.071270	0.268045	-0.127081	1.071952	0.216313	-0.192156	1.102083	0.059355	-0.210995	1.091795	0.003199	-0.217983	1.151727	-0.017021	-0.192539	1.171269	0.032370	0.090355	1.266701	-0.002823	0.047087	1.219057	0.051622	0.049733	1.263700	0.015129	0.105836	1.222880	0.025029	0.030980	1.283829	-0.049242	0.067441	1.097703	0.026151	-0.131211	1.242683	-0.060724	0.040168	1.238178	0.039052
2518	25.180000	-0.014912	1.344450	-0.135002	-0.013009	1.141367	-0.149289	-0.174293	1.014022	0.056015	-0.130684	0.992639	0.027515	-0.069642	1.037608	0.253426	-0.071295	1.085033	0.242644	-0.153142	1.259041	-0.035283	-0.124413	1.028665	0.229738	-0.099658	1.043834	0.276053	-0.101085	1.070573	0.267926	-0.126656	1.071427	0.216216	-0.192106	1.101970	0.059337	-0.210961	1.091802	0.003168	-0.217929	1.151765	-0.016951	-0.192474	1.171210	0.032472	0.090443	1.266686	-0.002793	0.047189	1.219049	0.051682	0.049817	1.263689	0.015196	0.105934	1.222838	0.025041	0.031055	1.283840	-0.049179	0.067523	1.097692	0.026157	-0.131143	1.242746	-0.060535	0.040265	1.238176	0.039116
2519	25.190000	-0.014861	1.344487	-0.134898	-0.012981	1.141407	-0.149241	-0.174316	1.013924	0.055849	-0.130725	0.992563	0.027302	-0.069337	1.036736	0.253231	-0.070763	1.084191	0.242544	-0.153064	1.259064	-0.035153	-0.124233	1.028269	0.229495	-0.099398	1.043197	0.275873	-0.100616	1.069921	0.267756	-0.126163	1.071043	0.216036	-0.192001	1.101861	0.059256	-0.210940	1.091809	0.003116	-0.217883	1.151818	-0.016883	-0.192387	1.171159	0.032556	0.090541	1.266668	-0.002738	0.047293	1.219031	0.051731	0.049933	1.263669	0.015253	0.106032	1.222813	0.025070	0.031131	1.283850	-0.049107	0.067609	1.097679	0.026165	-0.131073	1.242813	-0.060341	0.040305	1.238167	0.039105
2520	25.200000	-0.014799	1.344546	-0.134776	-0.012952	1.141472	-0.149198	-0.174337	1.013823	0.055678	-0.130763	0.992487	0.027087	-0.069029	1.035848	0.253027	-0.070263	1.083333	0.242453	-0.152979	1.259102	-0.035015	-0.124053	1.027917	0.229254	-0.099177	1.042594	0.275724	-0.100124	1.069359	0.267543	-0.125718	1.070810	0.215935	-0.191981	1.101760	0.059288	-0.210917	1.091801	0.003064	-0.217856	1.151844	-0.016830	-0.192332	1.171067	0.032835	0.090677	1.266571	-0.002723	0.047370	1.219021	0.051854	0.050038	1.263656	0.015330	0.106153	1.222798	0.025093	0.031214	1.283870	-0.049025	0.067694	1.097664	0.026163	-0.131002	1.242882	-0.060143	0.040428	1.238176	0.039159
2521	25.210000	-0.014739	1.344606	-0.134644	-0.012926	1.141538	-0.149149	-0.174355	1.013722	0.055505	-0.130798	0.992412	0.026869	-0.068719	1.034953	0.252822	-0.069802	1.082471	0.242379	-0.152893	1.259142	-0.034866	-0.123882	1.027528	0.229067	-0.098866	1.041957	0.275519	-0.099597	1.068730	0.267347	-0.125334	1.070715	0.216078	-0.191967	1.101689	0.059460	-0.210897	1.091803	0.003001	-0.217823	1.151878	-0.016779	-0.192243	1.171067	0.032622	0.090800	1.266566	-0.002670	0.047405	1.219001	0.052127	0.050132	1.263644	0.015378	0.106246	1.222771	0.025132	0.031298	1.283889	-0.048934	0.067779	1.097648	0.026164	-0.130931	1.242951	-0.059946	0.040528	1.238170	0.039215
2522	25.220000	-0.014676	1.344675	-0.134500	-0.012902	1.141612	-0.149097	-0.174368	1.013622	0.055334	-0.130828	0.992338	0.026653	-0.068406	1.034055	0.252612	-0.069380	1.081607	0.242318	-0.152806	1.259188	-0.034708	-0.123679	1.026989	0.228910	-0.098553	1.041222	0.275332	-0.099111	1.067961	0.267154	-0.124777	1.070098	0.215929	-0.191963	1.101595	0.059395	-0.210891	1.091791	0.002945	-0.217799	1.151904	-0.016750	-0.192207	1.170969	0.032930	0.090922	1.266542	-0.002619	0.047498	1.219005	0.052154	0.050223	1.263616	0.015460	0.106368	1.222763	0.025167	0.031384	1.283912	-0.048836	0.067863	1.097631	0.026164	-0.130862	1.243019	-0.059750	0.040684	1.238168	0.039328
2523	25.230000	-0.014608	1.344755	-0.134346	-0.012879	1.141700	-0.149047	-0.174376	1.013522	0.055169	-0.130855	0.992264	0.026440	-0.068089	1.033161	0.252397	-0.068995	1.080750	0.242268	-0.152717	1.259245	-0.034545	-0.123378	1.026314	0.228755	-0.098144	1.040360	0.275155	-0.098647	1.067207	0.267063	-0.124345	1.069494	0.215951	-0.191956	1.101499	0.059364	-0.210890	1.091790	0.002892	-0.217776	1.151941	-0.016703	-0.192161	1.170904	0.033067	0.091036	1.266527	-0.002556	0.047735	1.218868	0.052160	0.050344	1.263609	0.015534	0.106483	1.222731	0.025213	0.031472	1.283940	-0.048730	0.067943	1.097613	0.026163	-0.130795	1.243084	-0.059558	0.040826	1.238152	0.039427
2524	25.240000	-0.014546	1.344827	-0.134190	-0.012862	1.141778	-0.148985	-0.174378	1.013425	0.055012	-0.130877	0.992192	0.026235	-0.067771	1.032282	0.252185	-0.068653	1.079910	0.242238	-0.152632	1.259298	-0.034374	-0.123091	1.025533	0.228620	-0.097745	1.039396	0.275015	-0.098223	1.066202	0.267067	-0.124046	1.068553	0.215740	-0.191950	1.101408	0.059330	-0.210916	1.091790	0.002853	-0.217768	1.151968	-0.016654	-0.192119	1.170842	0.033131	0.091153	1.266559	-0.002439	0.047850	1.218847	0.052217	0.050441	1.263604	0.015614	0.106599	1.222716	0.025259	0.031557	1.283963	-0.048621	0.068021	1.097596	0.026172	-0.130733	1.243145	-0.059375	0.040919	1.238126	0.039493
2525	25.250000	-0.014478	1.344912	-0.134027	-0.012846	1.141870	-0.148926	-0.174372	1.013332	0.054868	-0.130892	0.992121	0.026041	-0.067448	1.031422	0.251970	-0.068344	1.079090	0.242219	-0.152546	1.259364	-0.034203	-0.122752	1.024638	0.228483	-0.097325	1.038324	0.274869	-0.097914	1.065239	0.267086	-0.123759	1.067721	0.215753	-0.191929	1.101311	0.059310	-0.210931	1.091788	0.002829	-0.217767	1.152002	-0.016588	-0.192053	1.170779	0.033215	0.091251	1.266538	-0.002358	0.048064	1.218720	0.051958	0.050510	1.263647	0.015807	0.106705	1.222723	0.025344	0.031643	1.283994	-0.048505	0.068093	1.097580	0.026178	-0.130673	1.243201	-0.059198	0.041017	1.238128	0.039581
2526	25.260000	-0.014415	1.344988	-0.133866	-0.012834	1.141953	-0.148857	-0.174357	1.013243	0.054738	-0.130901	0.992054	0.025859	-0.067127	1.030593	0.251765	-0.068073	1.078302	0.242219	-0.152464	1.259425	-0.034028	-0.122371	1.023708	0.228343	-0.096870	1.037295	0.274720	-0.097575	1.064165	0.267070	-0.123592	1.066773	0.215610	-0.191883	1.101235	0.059301	-0.210938	1.091791	0.002833	-0.217761	1.152038	-0.016502	-0.191975	1.170737	0.033321	0.091336	1.266534	-0.002258	0.048138	1.218703	0.052082	0.050615	1.263639	0.015886	0.106785	1.222707	0.025404	0.031725	1.284021	-0.048389	0.068161	1.097565	0.026196	-0.130619	1.243250	-0.059033	0.041123	1.238106	0.039657
2527	25.270000	-0.014353	1.345061	-0.133707	-0.012825	1.142031	-0.148784	-0.174332	1.013160	0.054626	-0.130903	0.991990	0.025695	-0.066808	1.029801	0.251571	-0.067833	1.077550	0.242236	-0.152386	1.259488	-0.033855	-0.122004	1.022802	0.228237	-0.096477	1.036254	0.274673	-0.097282	1.063163	0.267126	-0.123499	1.065835	0.215782	-0.191812	1.101170	0.059318	-0.210915	1.091806	0.002850	-0.217727	1.152071	-0.016405	-0.191882	1.170692	0.033420	0.091430	1.266539	-0.002159	0.048245	1.218683	0.052134	0.050707	1.263629	0.015981	0.106877	1.222684	0.025457	0.031803	1.284047	-0.048273	0.068224	1.097552	0.026222	-0.130570	1.243295	-0.058879	0.041195	1.238092	0.039742
2528	25.280000	-0.014290	1.345134	-0.133551	-0.012816	1.142111	-0.148709	-0.174298	1.013085	0.054535	-0.130896	0.991932	0.025549	-0.066493	1.029053	0.251390	-0.067620	1.076841	0.242268	-0.152310	1.259555	-0.033687	-0.121741	1.022022	0.228189	-0.096111	1.035224	0.274626	-0.097049	1.062231	0.267243	-0.123489	1.065478	0.216348	-0.191719	1.101104	0.059373	-0.210872	1.091813	0.002902	-0.217694	1.152104	-0.016282	-0.191786	1.170656	0.033540	0.091503	1.266522	-0.002082	0.048308	1.218667	0.052242	0.050801	1.263616	0.016072	0.106948	1.222666	0.025530	0.031880	1.284076	-0.048156	0.068280	1.097542	0.026251	-0.130526	1.243334	-0.058735	0.041324	1.238019	0.039912
2529	25.290000	-0.014237	1.345189	-0.133406	-0.012811	1.142170	-0.148623	-0.174253	1.013019	0.054464	-0.130880	0.991881	0.025424	-0.066188	1.028357	0.251234	-0.067434	1.076182	0.242323	-0.152242	1.259611	-0.033519	-0.121534	1.021308	0.228185	-0.095829	1.034401	0.274591	-0.096762	1.061454	0.267310	-0.123385	1.064870	0.216412	-0.191594	1.101065	0.059413	-0.210829	1.091815	0.002957	-0.217640	1.152136	-0.016149	-0.191677	1.170622	0.033649	0.091585	1.266511	-0.001989	0.048372	1.218671	0.052334	0.050880	1.263623	0.016173	0.107016	1.222658	0.025606	0.031949	1.284096	-0.048044	0.068335	1.097533	0.026298	-0.130487	1.243368	-0.058604	0.041411	1.237999	0.040013
2530	25.300000	-0.014180	1.345248	-0.133265	-0.012804	1.142232	-0.148539	-0.174197	1.012962	0.054416	-0.130855	0.991837	0.025321	-0.065893	1.027715	0.251099	-0.067266	1.075573	0.242391	-0.152174	1.259673	-0.033361	-0.121299	1.020654	0.228150	-0.095586	1.033735	0.274555	-0.096543	1.060691	0.267357	-0.122963	1.063932	0.216175	-0.191476	1.101027	0.059482	-0.210758	1.091817	0.003023	-0.217583	1.152163	-0.016037	-0.191588	1.170598	0.033766	0.091643	1.266515	-0.001928	0.048262	1.218914	0.052560	0.050945	1.263645	0.016273	0.107075	1.222658	0.025680	0.032018	1.284120	-0.047934	0.068383	1.097528	0.026345	-0.130453	1.243399	-0.058481	0.041484	1.237997	0.040098
